<?xml version="1.0" encoding="UTF-8" standalone="no"?>
<!-- Created with Inkscape (http://www.inkscape.org/) -->

<svg
   width="200mm"
   height="200mm"
   viewBox="0 0 200 200"
   version="1.1"
   id="svg1"
   inkscape:version="1.3.2 (091e20e, 2023-11-25)"
   sodipodi:docname="cv.svg"
   xmlns:inkscape="http://www.inkscape.org/namespaces/inkscape"
   xmlns:sodipodi="http://sodipodi.sourceforge.net/DTD/sodipodi-0.dtd"
   xmlns="http://www.w3.org/2000/svg"
   xmlns:svg="http://www.w3.org/2000/svg">
  <sodipodi:namedview
     id="namedview1"
     pagecolor="#ffffff"
     bordercolor="#000000"
     borderopacity="0.25"
     inkscape:showpageshadow="2"
     inkscape:pageopacity="0.0"
     inkscape:pagecheckerboard="false"
     inkscape:deskcolor="#d1d1d1"
     inkscape:document-units="mm"
     inkscape:zoom="0.61771345"
     inkscape:cx="205.59695"
     inkscape:cy="273.58964"
     inkscape:window-width="1440"
     inkscape:window-height="823"
     inkscape:window-x="0"
     inkscape:window-y="0"
     inkscape:window-maximized="0"
     inkscape:current-layer="layer1" />
  <defs
     id="defs1">
    <inkscape:path-effect
       effect="fillet_chamfer"
       id="path-effect3"
       is_visible="true"
       lpeversion="1"
       nodesatellites_param="F,0,0,1,0,0,0,1 @ F,0,0,1,0,0,0,1 @ F,0,0,1,0,0,0,1 @ F,0,0,1,0,0,0,1 @ F,0,0,1,0,0,0,1 @ F,0,0,1,0,0,0,1 @ F,0,0,1,0,0,0,1 @ F,0,0,1,0,0,0,1 @ F,0,0,1,0,0,0,1 @ F,0,0,1,0,0,0,1 @ F,0,0,1,0,0,0,1 @ F,0,0,1,0,0,0,1 @ F,0,0,1,0,0,0,1 @ F,0,0,1,0,0,0,1 @ F,0,0,1,0,0,0,1 @ F,0,0,1,0,0,0,1 @ F,0,0,1,0,0,0,1 @ F,0,0,1,0,0,0,1 @ F,0,0,1,0,0,0,1 @ F,0,0,1,0,0,0,1 @ F,0,0,1,0,0,0,1 @ F,0,0,1,0,0,0,1 @ F,0,0,1,0,0,0,1 @ F,0,0,1,0,0,0,1 @ F,0,0,1,0,0,0,1 @ F,0,0,1,0,0,0,1 @ F,0,0,1,0,0,0,1 @ F,0,0,1,0,0,0,1 @ F,0,0,1,0,0,0,1 @ F,0,0,1,0,0,0,1 @ F,0,0,1,0,0,0,1 @ F,0,0,1,0,0,0,1 @ F,0,0,1,0,0,0,1 @ F,0,0,1,0,0,0,1 @ F,0,0,1,0,0,0,1 @ F,0,0,1,0,0,0,1 @ F,0,0,1,0,0,0,1 @ F,0,0,1,0,0,0,1 @ F,0,0,1,0,0,0,1 @ F,0,0,1,0,0,0,1 @ F,0,0,1,0,0,0,1 @ F,0,0,1,0,0,0,1 @ F,0,0,1,0,0,0,1 @ F,0,0,1,0,0,0,1 @ F,0,0,1,0,0,0,1 @ F,0,0,1,0,0,0,1 @ F,0,0,1,0,0,0,1 @ F,0,0,1,0,0,0,1 @ F,0,0,1,0,0,0,1 @ F,0,0,1,0,0,0,1 @ F,0,0,1,0,0,0,1 @ F,0,0,1,0,0,0,1 @ F,0,0,1,0,0,0,1 @ F,0,0,1,0,0,0,1 @ F,0,0,1,0,0,0,1 @ F,0,0,1,0,0,0,1 @ F,0,0,1,0,0,0,1 @ F,0,0,1,0,0,0,1 @ F,0,0,1,0,0,0,1 @ F,0,0,1,0,0,0,1 @ F,0,0,1,0,0,0,1 @ F,0,0,1,0,0,0,1 @ F,0,0,1,0,0,0,1 @ F,0,0,1,0,0,0,1 @ F,0,0,1,0,0,0,1 @ F,0,0,1,0,0,0,1 @ F,0,0,1,0,0,0,1 @ F,0,0,1,0,0,0,1 @ F,0,0,1,0,0,0,1 @ F,0,0,1,0,0,0,1 @ F,0,0,1,0,0,0,1 @ F,0,0,1,0,0,0,1"
       radius="0"
       unit="px"
       method="auto"
       mode="F"
       chamfer_steps="1"
       flexible="false"
       use_knot_distance="true"
       apply_no_radius="true"
       apply_with_radius="true"
       only_selected="false"
       hide_knots="false" />
    <inkscape:path-effect
       effect="spiro"
       id="path-effect2"
       is_visible="true"
       lpeversion="1" />
    <inkscape:path-effect
       effect="spiro"
       id="path-effect1"
       is_visible="true"
       lpeversion="1" />
  </defs>
  <g
     id="g3"
     transform="translate(0,-1.7548715)">
    <g
       inkscape:label="Layer 1"
       inkscape:groupmode="layer"
       id="layer1">
      <path
         style="opacity:0.955556;fill:none;stroke:#181825;stroke-width:7;stroke-linecap:round;stroke-linejoin:round;stroke-dasharray:none;stroke-opacity:1;paint-order:stroke markers fill"
         d="m 39.066647,182.0903 c -0.72525,3.69451 -3.256534,6.99007 -6.639042,8.64357 -3.382509,1.6535 -7.537911,1.62666 -10.898773,-0.0704 -2.045293,-1.03277 -3.785225,-2.64624 -5.016554,-4.57851 -1.23133,-1.93227 -1.956533,-4.17626 -2.145032,-6.45975 -0.376998,-4.56697 1.428766,-9.18745 4.502037,-12.58662 2.642501,-2.92272 6.168093,-4.98628 9.939543,-6.127 3.771451,-1.14073 7.782405,-1.38283 11.702357,-0.984 7.839906,0.79766 15.189949,4.07949 22.282507,7.51402 8.437052,4.08559 16.761693,8.46132 25.559521,11.69769 13.476869,4.95761 28.498289,7.12117 42.212669,2.86444 7.03392,-2.18322 13.62209,-6.0869 18.41132,-11.68206 4.78923,-5.59516 7.67082,-12.941 7.29604,-20.29641 -0.34716,-6.81331 -3.42007,-13.28618 -7.69199,-18.60523 -4.27193,-5.31905 -9.70055,-9.59002 -15.31098,-13.47136 C 122.8865,110.76509 111.7006,104.74578 100,100 81.450833,92.476427 60.6467,88.191069 41.40074,93.692775 33.114169,96.061598 25.152524,100.3676 19.789673,107.11434 c -2.681426,3.37336 -4.670075,7.32338 -5.582885,11.53485 -0.912811,4.21146 -0.727714,8.68304 0.722588,12.7409 1.203768,3.36808 3.275522,6.42885 5.990038,8.75788 2.714516,2.32903 6.068721,3.91565 9.599903,4.48463 3.531182,0.56899 7.228886,0.11176 10.493979,-1.34843 3.265093,-1.46019 6.081257,-3.92429 7.917232,-6.99385 2.101746,-3.5139 2.872784,-7.64145 4.338006,-11.46479 0.732611,-1.91167 1.65419,-3.77236 2.953676,-5.35431 1.299486,-1.58194 3.001456,-2.8778 4.963667,-3.4617 1.55112,-0.46157 3.22316,-0.46474 4.800364,-0.10218 1.577204,0.36255 3.061252,1.08291 4.380834,2.01978 2.639165,1.87373 4.586989,4.56113 6.255856,7.33439 1.668866,2.77325 3.113716,5.6892 5.007379,8.3141 1.893664,2.6249 4.312939,4.9912 7.333297,6.1546 2.654061,1.02231 5.650529,1.04332 8.376506,0.23202 2.725977,-0.8113 5.182077,-2.42791 7.144967,-4.48612 3.92579,-4.11641 5.80247,-9.80951 6.55898,-15.44727 0.75651,-5.63775 0.50981,-11.35718 0.8142,-17.03732 0.30439,-5.680141 1.21384,-11.482825 4.05082,-16.413157 3.20886,-5.576611 8.76974,-9.646587 14.93392,-11.490009 6.16418,-1.843422 12.87481,-1.539236 19.01529,0.381662 6.14048,1.920898 11.7267,5.406675 16.50967,9.70999 4.78297,4.303315 8.78944,9.413551 12.27738,14.819994 6.5153,10.09897 11.31314,21.41885 13.07987,33.30654 1.76673,11.88768 0.40165,24.35905 -4.77065,35.20735 -4.07366,8.54404 -10.52615,16.01416 -18.65023,20.8716 -8.12408,4.85744 -17.92341,7.00967 -27.27186,5.52582 -9.34845,-1.48385 -18.13935,-6.69741 -23.54484,-14.46762 -5.40549,-7.7702 -7.21856,-18.0449 -4.35779,-27.06772 1.76038,-5.55221 5.15701,-10.48307 9.21546,-14.66099 4.05844,-4.17793 8.77765,-7.65336 13.58004,-10.94927 7.41457,-5.08867 15.13459,-9.83835 21.6711,-16.01446 8.85256,-8.36446 15.37984,-19.511802 16.82919,-31.604413 0.41312,-3.446894 0.41467,-6.961708 -0.24677,-10.369677 -0.66144,-3.407968 -2.00172,-6.710432 -4.10664,-9.47106 -2.71658,-3.562834 -6.64018,-6.116763 -10.89232,-7.528456 -4.25214,-1.411694 -8.82193,-1.720912 -13.28112,-1.28589 -8.91838,0.870046 -17.26073,4.608919 -25.54929,8.013954 -15.94408,6.550014 -32.413177,12.054319 -49.434816,14.77098 -9.049802,1.444353 -18.327792,2.089879 -27.364259,0.564318 C 34.513947,73.315446 25.686786,69.484886 19.259577,62.952195 16.045972,59.68585 13.467791,55.772854 11.89089,51.470569 10.313989,47.168285 9.7536012,42.476218 10.437501,37.945374 11.1214,33.414529 13.06714,29.058298 16.109648,25.632015 c 3.042507,-3.426283 7.187494,-5.89161 11.68447,-6.771086 3.308072,-0.646961 6.750537,-0.442738 10.029948,0.336597 3.279411,0.779336 6.405016,2.122499 9.365054,3.734974 5.920076,3.224949 11.190938,7.514217 16.949191,11.019944 12.812853,7.800693 28.044333,11.563601 43.015729,10.626955 14.9714,-0.936646 29.61511,-6.568618 41.3558,-15.90544"
         id="path2"
         inkscape:path-effect="#path-effect2"
         inkscape:original-d="M 39.066647,182.0903 C 59.835536,181.69844 16.889876,150.17227 21.528832,190.66346 2703.3471,23598.951 -174.59633,349.89079 18.869283,167.03858 74.628375,114.3384 2395.2193,-14298.166 62.79369,167.4416 c -5.252182,32.57382 -24.078926,53.04178 25.559521,11.69769 9.377801,-7.81082 22.815309,11.48549 42.212669,2.86444 19.39736,-8.62105 13.75545,-43.93037 25.70736,-31.97847 11.95191,11.95191 -8.9335,-35.00691 -23.00297,-32.07659 C 32.464008,138.94418 89.412719,106.79808 100,100 153.83892,65.430097 57.859108,97.244301 41.40074,93.692775 24.942372,90.141249 -38.930015,119.18783 14.929376,131.39009 c 121.760034,27.58567 48.649532,-1.00113 34.001152,4.90023 -16.429976,6.61915 6.430563,3.52306 12.255349,-20.2808 4.098482,-16.749068 35.797881,35.89455 27.77773,23.72069 -17.613214,-26.73526 7.066288,-61.062166 26.945473,-53.151847 7.69364,3.061448 22.46714,28.381377 62.73626,13.421637 46.16261,-17.14914 15.03333,84.09452 8.30922,68.51389 -8.77947,-20.34318 -120.833981,5.2537 -73.82472,-15.13792 101.41406,-43.99125 -33.646,70.57595 22.7955,-25.61026 40.9299,-69.751726 16.74835,7.04798 21.6711,-16.01446 C 165.10168,76.590177 119.07417,91.794967 174.42563,80.146837 193.39622,76.154677 -669.13443,259219.49 170.07222,60.3061 170.2774,-3.0571915 485.3355,308.67881 120.34949,59.505708 -345.50272,-258.52798 96.447532,75.852594 70.914674,74.276688 50.181472,72.99702 32.038547,7.4814965 27.794118,18.860929 -20.6323,148.6935 62.170756,49.461679 64.138311,33.952444 66.482809,15.471959 134.40267,28.08616 148.50984,28.673959"
         sodipodi:nodetypes="csssssssssssssssssssssssssc"
         transform="translate(-1.3015906,-0.53351488)" />
      <circle
         style="fill:#ca9ee6;fill-opacity:1;stroke:none;stroke-width:5;stroke-linecap:round;stroke-linejoin:round;stroke-dasharray:none;stroke-opacity:1;paint-order:stroke markers fill"
         id="path3"
         cx="163.76534"
         cy="14.47372"
         r="9.8130293" />
    </g>
  </g>
</svg>
