<?xml version="1.0" encoding="UTF-8"?>
<svg xmlns="http://www.w3.org/2000/svg" xmlns:xlink="http://www.w3.org/1999/xlink" width="63.245553pt" height="63.245553pt" viewBox="0 0 63.245553 63.245553" version="1.1">
<g id="surface2">
<path style=" stroke:none;fill-rule:nonzero;fill:rgb(100%,100%,100%);fill-opacity:1;" d="M 0 0 L 63.246094 0 L 63.246094 63.246094 L 0 63.246094 Z M 0 0 "/>
<path style="fill:none;stroke-width:1;stroke-linecap:butt;stroke-linejoin:miter;stroke:rgb(26.666667%,26.666667%,26.666667%);stroke-opacity:1;stroke-miterlimit:10;" d="M 22.359375 49.160156 L 36.957031 53.246094 "/>
<path style="fill:none;stroke-width:1;stroke-linecap:butt;stroke-linejoin:miter;stroke:rgb(26.666667%,26.666667%,26.666667%);stroke-opacity:1;stroke-miterlimit:10;" d="M 22.359375 49.160156 L 47.84375 44.265625 "/>
<path style="fill:none;stroke-width:1;stroke-linecap:butt;stroke-linejoin:miter;stroke:rgb(26.666667%,26.666667%,26.666667%);stroke-opacity:1;stroke-miterlimit:10;" d="M 22.359375 49.160156 L 10 34.910156 "/>
<path style="fill:none;stroke-width:1;stroke-linecap:butt;stroke-linejoin:miter;stroke:rgb(26.666667%,26.666667%,26.666667%);stroke-opacity:1;stroke-miterlimit:10;" d="M 36.15625 24.917969 L 53.246094 28.289062 "/>
<path style="fill:none;stroke-width:1;stroke-linecap:butt;stroke-linejoin:miter;stroke:rgb(26.666667%,26.666667%,26.666667%);stroke-opacity:1;stroke-miterlimit:10;" d="M 36.15625 24.917969 L 26.488281 10 "/>
<path style="fill:none;stroke-width:1;stroke-linecap:butt;stroke-linejoin:miter;stroke:rgb(26.666667%,26.666667%,26.666667%);stroke-opacity:1;stroke-miterlimit:10;" d="M 36.15625 24.917969 L 26.796875 38.523438 "/>
<path style="fill:none;stroke-width:1;stroke-linecap:butt;stroke-linejoin:miter;stroke:rgb(26.666667%,26.666667%,26.666667%);stroke-opacity:1;stroke-miterlimit:10;" d="M 36.957031 53.246094 L 47.84375 44.265625 "/>
<path style="fill:none;stroke-width:1;stroke-linecap:butt;stroke-linejoin:miter;stroke:rgb(26.666667%,26.666667%,26.666667%);stroke-opacity:1;stroke-miterlimit:10;" d="M 36.957031 53.246094 L 26.796875 38.523438 "/>
<path style="fill:none;stroke-width:1;stroke-linecap:butt;stroke-linejoin:miter;stroke:rgb(26.666667%,26.666667%,26.666667%);stroke-opacity:1;stroke-miterlimit:10;" d="M 47.84375 44.265625 L 53.246094 28.289062 "/>
<path style="fill:none;stroke-width:1;stroke-linecap:butt;stroke-linejoin:miter;stroke:rgb(26.666667%,26.666667%,26.666667%);stroke-opacity:1;stroke-miterlimit:10;" d="M 10 34.910156 L 15.640625 18.941406 "/>
<path style="fill:none;stroke-width:1;stroke-linecap:butt;stroke-linejoin:miter;stroke:rgb(26.666667%,26.666667%,26.666667%);stroke-opacity:1;stroke-miterlimit:10;" d="M 10 34.910156 L 26.796875 38.523438 "/>
<path style="fill:none;stroke-width:1;stroke-linecap:butt;stroke-linejoin:miter;stroke:rgb(26.666667%,26.666667%,26.666667%);stroke-opacity:1;stroke-miterlimit:10;" d="M 53.246094 28.289062 L 41.164062 14.085938 "/>
<path style="fill:none;stroke-width:1;stroke-linecap:butt;stroke-linejoin:miter;stroke:rgb(26.666667%,26.666667%,26.666667%);stroke-opacity:1;stroke-miterlimit:10;" d="M 15.640625 18.941406 L 26.488281 10 "/>
<path style="fill:none;stroke-width:1;stroke-linecap:butt;stroke-linejoin:miter;stroke:rgb(26.666667%,26.666667%,26.666667%);stroke-opacity:1;stroke-miterlimit:10;" d="M 15.640625 18.941406 L 41.164062 14.085938 "/>
<path style="fill:none;stroke-width:1;stroke-linecap:butt;stroke-linejoin:miter;stroke:rgb(26.666667%,26.666667%,26.666667%);stroke-opacity:1;stroke-miterlimit:10;" d="M 26.488281 10 L 41.164062 14.085938 "/>
<path style="fill-rule:nonzero;fill:rgb(62.745098%,12.54902%,94.117647%);fill-opacity:1;stroke-width:1;stroke-linecap:butt;stroke-linejoin:miter;stroke:rgb(0%,0%,0%);stroke-opacity:1;stroke-miterlimit:10;" d="M 24.359375 49.160156 C 24.359375 51.828125 20.359375 51.828125 20.359375 49.160156 C 20.359375 46.496094 24.359375 46.496094 24.359375 49.160156 "/>
<path style="fill-rule:nonzero;fill:rgb(62.745098%,12.54902%,94.117647%);fill-opacity:1;stroke-width:1;stroke-linecap:butt;stroke-linejoin:miter;stroke:rgb(0%,0%,0%);stroke-opacity:1;stroke-miterlimit:10;" d="M 38.15625 24.917969 C 38.15625 27.585938 34.15625 27.585938 34.15625 24.917969 C 34.15625 22.253906 38.15625 22.253906 38.15625 24.917969 "/>
<path style="fill-rule:nonzero;fill:rgb(62.745098%,12.54902%,94.117647%);fill-opacity:1;stroke-width:1;stroke-linecap:butt;stroke-linejoin:miter;stroke:rgb(0%,0%,0%);stroke-opacity:1;stroke-miterlimit:10;" d="M 38.957031 53.246094 C 38.957031 55.914062 34.957031 55.914062 34.957031 53.246094 C 34.957031 50.578125 38.957031 50.578125 38.957031 53.246094 "/>
<path style="fill-rule:nonzero;fill:rgb(62.745098%,12.54902%,94.117647%);fill-opacity:1;stroke-width:1;stroke-linecap:butt;stroke-linejoin:miter;stroke:rgb(0%,0%,0%);stroke-opacity:1;stroke-miterlimit:10;" d="M 49.84375 44.265625 C 49.84375 46.933594 45.84375 46.933594 45.84375 44.265625 C 45.84375 41.597656 49.84375 41.597656 49.84375 44.265625 "/>
<path style="fill-rule:nonzero;fill:rgb(62.745098%,12.54902%,94.117647%);fill-opacity:1;stroke-width:1;stroke-linecap:butt;stroke-linejoin:miter;stroke:rgb(0%,0%,0%);stroke-opacity:1;stroke-miterlimit:10;" d="M 12 34.910156 C 12 37.574219 8 37.574219 8 34.910156 C 8 32.242188 12 32.242188 12 34.910156 "/>
<path style="fill-rule:nonzero;fill:rgb(100%,64.705882%,0%);fill-opacity:1;stroke-width:1;stroke-linecap:butt;stroke-linejoin:miter;stroke:rgb(0%,0%,0%);stroke-opacity:1;stroke-miterlimit:10;" d="M 55.246094 28.289062 C 55.246094 30.957031 51.246094 30.957031 51.246094 28.289062 C 51.246094 25.625 55.246094 25.625 55.246094 28.289062 "/>
<path style="fill-rule:nonzero;fill:rgb(100%,64.705882%,0%);fill-opacity:1;stroke-width:1;stroke-linecap:butt;stroke-linejoin:miter;stroke:rgb(0%,0%,0%);stroke-opacity:1;stroke-miterlimit:10;" d="M 17.640625 18.941406 C 17.640625 21.609375 13.640625 21.609375 13.640625 18.941406 C 13.640625 16.277344 17.640625 16.277344 17.640625 18.941406 "/>
<path style="fill-rule:nonzero;fill:rgb(100%,64.705882%,0%);fill-opacity:1;stroke-width:1;stroke-linecap:butt;stroke-linejoin:miter;stroke:rgb(0%,0%,0%);stroke-opacity:1;stroke-miterlimit:10;" d="M 28.488281 10 C 28.488281 12.667969 24.488281 12.667969 24.488281 10 C 24.488281 7.332031 28.488281 7.332031 28.488281 10 "/>
<path style="fill-rule:nonzero;fill:rgb(100%,64.705882%,0%);fill-opacity:1;stroke-width:1;stroke-linecap:butt;stroke-linejoin:miter;stroke:rgb(0%,0%,0%);stroke-opacity:1;stroke-miterlimit:10;" d="M 28.796875 38.523438 C 28.796875 41.191406 24.796875 41.191406 24.796875 38.523438 C 24.796875 35.859375 28.796875 35.859375 28.796875 38.523438 "/>
<path style="fill-rule:nonzero;fill:rgb(100%,64.705882%,0%);fill-opacity:1;stroke-width:1;stroke-linecap:butt;stroke-linejoin:miter;stroke:rgb(0%,0%,0%);stroke-opacity:1;stroke-miterlimit:10;" d="M 43.164062 14.085938 C 43.164062 16.753906 39.164062 16.753906 39.164062 14.085938 C 39.164062 11.421875 43.164062 11.421875 43.164062 14.085938 "/>
</g>
</svg>
