<svg height="63.245553pt" viewBox="0 0 63.245553 63.245553" width="63.245553pt" xmlns="http://www.w3.org/2000/svg"><path d="m0 0h63.246094v63.246094h-63.246094zm0 0" fill="#fff"/><g stroke-miterlimit="10"><path d="m22.359375 49.160156 14.597656 4.085938" fill="none" stroke="#444"/><path d="m22.359375 49.160156 25.484375-4.894531" fill="none" stroke="#444"/><path d="m22.359375 49.160156-12.359375-14.25" fill="none" stroke="#444"/><path d="m36.15625 24.917969 17.089844 3.371093" fill="none" stroke="#444"/><path d="m36.15625 24.917969-9.667969-14.917969" fill="none" stroke="#444"/><path d="m36.15625 24.917969-9.359375 13.605469" fill="none" stroke="#444"/><path d="m36.957031 53.246094 10.886719-8.980469" fill="none" stroke="#444"/><path d="m36.957031 53.246094-10.160156-14.722656" fill="none" stroke="#444"/><path d="m47.84375 44.265625 5.402344-15.976563" fill="none" stroke="#444"/><path d="m10 34.910156 5.640625-15.96875" fill="none" stroke="#444"/><path d="m10 34.910156 16.796875 3.613282" fill="none" stroke="#444"/><path d="m53.246094 28.289062-12.082032-14.203124" fill="none" stroke="#444"/><path d="m15.640625 18.941406 10.847656-8.941406" fill="none" stroke="#444"/><path d="m15.640625 18.941406 25.523437-4.855468" fill="none" stroke="#444"/><path d="m26.488281 10 14.675781 4.085938" fill="none" stroke="#444"/><path d="m24.359375 49.160156c0 2.667969-4 2.667969-4 0 0-2.664062 4-2.664062 4 0" fill="#a020f0" stroke="#000"/><path d="m38.15625 24.917969c0 2.667969-4 2.667969-4 0 0-2.664063 4-2.664063 4 0" fill="#a020f0" stroke="#000"/><path d="m38.957031 53.246094c0 2.667968-4 2.667968-4 0 0-2.667969 4-2.667969 4 0" fill="#a020f0" stroke="#000"/><path d="m49.84375 44.265625c0 2.667969-4 2.667969-4 0s4-2.667969 4 0" fill="#a020f0" stroke="#000"/><path d="m12 34.910156c0 2.664063-4 2.664063-4 0 0-2.667968 4-2.667968 4 0" fill="#a020f0" stroke="#000"/><path d="m55.246094 28.289062c0 2.667969-4 2.667969-4 0 0-2.664062 4-2.664062 4 0" fill="#ffa500" stroke="#000"/><path d="m17.640625 18.941406c0 2.667969-4 2.667969-4 0 0-2.664062 4-2.664062 4 0" fill="#ffa500" stroke="#000"/><path d="m28.488281 10c0 2.667969-4 2.667969-4 0s4-2.667969 4 0" fill="#ffa500" stroke="#000"/><path d="m28.796875 38.523438c0 2.667968-4 2.667968-4 0 0-2.664063 4-2.664063 4 0" fill="#ffa500" stroke="#000"/><path d="m43.164062 14.085938c0 2.667968-4 2.667968-4 0 0-2.664063 4-2.664063 4 0" fill="#ffa500" stroke="#000"/></g></svg>