<?xml version="1.0" encoding="UTF-8"?>
<svg id="Calque_1" data-name="Calque 1" xmlns="http://www.w3.org/2000/svg" viewBox="0 0 1832.84 1832.84">
  <defs>
    <style>
      .cls-1 {
        fill: #e52320;
      }

      .cls-1, .cls-2 {
        opacity: .8;
      }

      .cls-1, .cls-3, .cls-4, .cls-5, .cls-6, .cls-7, .cls-8, .cls-9, .cls-10, .cls-11, .cls-12, .cls-13 {
        stroke-width: 0px;
      }

      .cls-14 {
        fill: none;
        stroke: #1d1d1b;
        stroke-miterlimit: 10;
        stroke-width: 40px;
      }

      .cls-15 {
        opacity: .9;
      }

      .cls-16 {
        opacity: .75;
      }

      .cls-3 {
        fill: #f7b8ab;
      }

      .cls-4 {
        fill: #f7a95f;
      }

      .cls-5 {
        fill: #cadef4;
      }

      .cls-6 {
        fill: #bbdfd8;
      }

      .cls-7 {
        fill: #bfd88d;
      }

      .cls-8 {
        fill: #a3151b;
      }

      .cls-9 {
        fill: #e94e1b;
      }

      .cls-10 {
        fill: #e6007e;
      }

      .cls-11 {
        fill: #fcea10;
      }

      .cls-12 {
        fill: #ffd300;
      }

      .cls-13 {
        fill: #ffd532;
      }
    </style>
  </defs>
  <g class="cls-2">
    <path class="cls-8" d="m723.64,1009.57c-.92,0-1.82,0-2.74-.01-118.87-1.11-233.87-73.92-332.55-210.56-48.85-67.64-93.6-150.75-133.02-247.01-36.33-88.73-68.27-189.02-95.13-298.62-5.31-21.66,8.18-43.48,29.92-48.46h0c21.3-4.89,42.58,8.24,47.78,29.46,25.91,105.74,56.62,202.24,91.45,287.31,37.02,90.42,78.69,167.96,123.84,230.48,83.2,115.2,176.02,176.55,268.44,177.41,89.12.82,178.92-55.12,259.73-161.78,44.25-58.41,85.45-131.5,122.47-217.24,34.75-80.49,65.89-172.37,92.74-273.58,5.6-21.12,27.12-33.85,48.33-28.57h0c21.67,5.4,34.73,27.49,29,49.08-27.87,105.04-60.31,200.68-96.62,284.78-39.56,91.63-84.02,170.3-132.15,233.84-95.93,126.63-207.05,193.49-321.5,193.49Z"/>
  </g>
  <g class="cls-15">
    <path class="cls-9" d="m1077.14,1099.82c-4.22,0-8.43-.11-12.65-.32-92.5-4.75-178.83-60.32-256.61-165.16-80.46-108.46-152.66-271.82-214.82-485.97-6.22-21.42,6.23-43.8,27.73-49.75h0c21.09-5.84,42.98,6.35,49.07,27.37,59.45,204.95,127.43,359.82,202.27,460.69,62.87,84.74,128.97,129.46,196.47,132.93,74.6,3.85,139.31-43.48,180.47-83.84,42.12-41.29,81.05-96.74,108.17-153.21,9.07-18.89,31.13-27.64,50.65-20.01h.03c21.62,8.47,31.58,33.52,21.56,54.46-31.14,65.09-75.16,127.6-124.4,175.88-71.55,70.15-150.1,106.94-227.94,106.94Z"/>
  </g>
  <g class="cls-16">
    <path class="cls-10" d="m905.27,1674.8h-.46c-75.5-.09-151.29-21.44-225.27-63.47-69.41-39.43-135.94-96.33-197.75-169.1-60.01-70.66-114.11-154.54-160.8-249.31-41.28-83.79-75.8-174.15-102.84-269.11-6.14-21.57,6.75-43.95,28.45-49.59h0c21.06-5.47,42.58,6.92,48.54,27.85,25.71,90.27,58.48,176.05,97.61,255.48,43.79,88.88,94.26,167.23,150.01,232.88,55.73,65.62,115.04,116.53,176.29,151.33,61.82,35.12,124.35,52.96,185.85,53.03,56.74.09,112.94-15.13,167.07-45.17,59.06-32.77,116.24-83.47,169.95-150.68,116.91-146.29,216.32-367.49,295.72-657.89,5.78-21.14,27.51-33.68,48.71-28.13h0c21.54,5.64,34.31,27.8,28.44,49.28-82.33,300.99-186.66,531.88-310.37,686.68-60.26,75.4-125.4,132.83-193.63,170.69-66.03,36.64-135.17,55.21-205.51,55.21Z"/>
  </g>
  <g class="cls-15">
    <path class="cls-13" d="m1238.03,646.19h-.09c-34.66-.02-67.98-12.25-99.05-36.36-29.22-22.67-56.31-56.04-80.53-99.18-45.62-81.29-81.63-197.33-107.21-345.33-3.81-22.04,11.21-42.93,33.32-46.34h.01c21.55-3.33,41.79,11.23,45.51,32.72,11.35,65.59,24.87,124.83,40.32,176.54,17.05,57.07,36.5,105.27,57.82,143.25,18.95,33.77,39.07,59.04,59.8,75.12,16.72,12.97,33.57,19.56,50.07,19.57h.04c18.5,0,38.03-8.05,58.08-23.93,23.16-18.35,45.68-45.97,66.94-82.1,42.55-72.3,75.91-171.07,97.23-287.35,3.91-21.33,24.07-35.7,45.5-32.36h0c22.24,3.46,37.26,24.59,33.2,46.72-23.04,125.52-59.74,233.3-106.98,313.56-26.28,44.66-55.29,79.72-86.2,104.22-34.53,27.36-70.78,41.23-107.76,41.23Z"/>
  </g>
  <g class="cls-15">
    <path class="cls-12" d="m1267.79,1736.6c-43.03,0-85.95-12.88-127.62-38.33-39.61-24.18-78.21-59.88-114.72-106.11-35.1-44.45-68.56-98.96-99.44-162.02-25.51-52.11-49.36-110.23-71.09-173.24-7.31-21.19,4.26-44.24,25.6-51.09h0c20.68-6.64,42.93,4.42,50.01,24.96,45.02,130.5,99.21,237.77,157.69,311.81,30.62,38.77,62.12,68.18,93.62,87.41,29.67,18.11,59.31,27.07,88.13,26.59,28.02-.45,56.44-9.86,84.49-27.95,31.5-20.32,62.83-51.64,93.13-93.1,63.52-86.94,121.27-215.84,171.89-383.54,6.31-20.92,28.26-32.9,49.28-26.9h0c21.48,6.14,33.75,28.67,27.3,50.05-53.28,176.42-115.06,313.41-183.86,407.58-36.1,49.41-74.58,87.48-114.36,113.13-40.79,26.31-83.37,40-126.55,40.71-1.17.02-2.33.03-3.5.03Z"/>
  </g>
  <circle class="cls-5" cx="377.4" cy="362.62" r="56.55"/>
  <circle class="cls-3" cx="854.13" cy="362.62" r="56.55"/>
  <circle class="cls-11" cx="1172.76" cy="818.87" r="56.55"/>
  <circle class="cls-7" cx="717.53" cy="1261.99" r="56.55"/>
  <circle class="cls-6" cx="1172.76" cy="1261.99" r="56.55"/>
  <circle class="cls-1" cx="272.15" cy="1548.69" r="56.55"/>
  <circle class="cls-4" cx="1544" cy="465.63" r="56.55"/>
  <rect class="cls-14" x="20" y="20" width="1792.84" height="1792.84" rx="277.12" ry="277.12"/>
</svg>