<svg xmlns="http://www.w3.org/2000/svg" version="1.1" xmlns:xlink="http://www.w3.org/1999/xlink" width="400" height="400"><svg width="400" height="400" viewBox="0 0 400 400" version="1.1" id="SvgjsSvg1114" xmlns="http://www.w3.org/2000/svg" xmlns:svg="http://www.w3.org/2000/svg">
  <defs id="SvgjsDefs1113"></defs>
  <g id="SvgjsG1112" transform="translate(20,20)">
    <path style="color:#000000;fill:#ffffff;fill-opacity:1;fill-rule:evenodd;stroke-linejoin:round;-inkscape-stroke:none;paint-order:stroke markers fill" d="m 236.24219,-7.359375 a 25.0025,25.0025 0 0 0 -12.5,3.3476563 L 111.25781,60.933594 A 25.0025,25.0025 0 0 0 98.757812,82.583984 V 169.16992 L 23.769531,125.875 a 25.0025,25.0025 0 0 0 -37.5,21.65039 v 129.89063 a 25.0025,25.0025 0 0 0 37.5,21.65039 l 74.988281,-43.29493 v 86.58985 a 25.0025,25.0025 0 0 0 37.499998,21.65039 l 112.48438,-64.94531 a 25.0025,25.0025 0 0 0 0,-43.30079 l -74.98633,-43.29492 62.48633,-36.07812 99.98828,57.72851 a 25.0025,25.0025 0 0 0 37.5,-21.65039 V 82.583984 a 25.0025,25.0025 0 0 0 -12.5,-21.65039 L 248.74219,-4.0117187 a 25.0025,25.0025 0 0 0 -12.5,-3.3476563 z m 0,53.867187 87.48828,50.511719 V 169.16992 L 248.74219,125.875 a 25.0025,25.0025 0 0 0 -25,0 l -74.98438,43.29297 V 97.017578 Z M 36.269531,190.82617 73.757812,212.4707 36.269531,234.11523 Z m 112.488279,64.94727 37.48633,21.64258 -37.48633,21.64257 z" id="SvgjsPath1111"></path>
    <path style="color:#000000;display:inline;fill:#7f007f;fill-rule:evenodd;stroke-linejoin:round;-inkscape-stroke:none;paint-order:stroke markers fill" d="M 236.24194,17.639635 123.75805,82.584955 V 212.47119 l 112.48389,-64.94532 112.48828,64.94532 V 82.584955 Z M 123.75805,212.47119 V 342.36181 L 236.24194,277.4165 Z m 0,0 L 11.269778,147.52587 V 277.4165 Z" id="SvgjsPath1110"></path>
  </g>
</svg><style>@media (prefers-color-scheme: light) { :root { filter: none; } }
@media (prefers-color-scheme: dark) { :root { filter: none; } }
</style></svg>